<svg width="15" height="15" viewBox="0 0 15 15" fill="none" xmlns="http://www.w3.org/2000/svg">
<path d="M14.6515 6.04379C14.5553 5.74633 14.2915 5.53507 13.9793 5.50694L9.73947 5.12195L8.06292 1.19781C7.9393 0.91022 7.65776 0.72406 7.34495 0.72406C7.03215 0.72406 6.75061 0.91022 6.62699 1.19848L4.95043 5.12195L0.709893 5.50694C0.398319 5.53574 0.135163 5.74633 0.0384405 6.04379C-0.0582818 6.34124 0.0310434 6.66749 0.266741 6.87315L3.47158 9.68382L2.52655 13.8467C2.45739 14.1528 2.5762 14.4692 2.83016 14.6527C2.96667 14.7514 3.12638 14.8016 3.28744 14.8016C3.4263 14.8016 3.56404 14.7641 3.68766 14.6902L7.34495 12.5043L11.0009 14.6902C11.2684 14.8511 11.6057 14.8364 11.8591 14.6527C12.1131 14.4686 12.2318 14.1521 12.1627 13.8467L11.2177 9.68382L14.4225 6.87372C14.6582 6.66749 14.7482 6.3418 14.6515 6.04379Z" fill="#FFC107"/>
</svg>
